<svg width="29" height="28" viewBox="0 0 29 28" fill="none" xmlns="http://www.w3.org/2000/svg">
<path opacity="0.3" d="M17.2678 19.4916C16.8122 19.036 16.8122 18.2973 17.2678 17.8417C17.7234 17.3861 18.4621 17.3861 18.9177 17.8417L23.5844 22.5084C24.04 22.964 24.04 23.7027 23.5844 24.1583C23.1288 24.6139 22.3901 24.6139 21.9345 24.1583L17.2678 19.4916Z" fill="#8E919C"/>
<path fill-rule="evenodd" clip-rule="evenodd" d="M5.25944 12.8333C5.25944 17.3436 8.91578 21 13.4261 21C17.9364 21 21.5928 17.3436 21.5928 12.8333C21.5928 8.323 17.9364 4.66666 13.4261 4.66666C8.91578 4.66666 5.25944 8.323 5.25944 12.8333ZM19.2594 12.8333C19.2594 16.055 16.6478 18.6667 13.4261 18.6667C10.2044 18.6667 7.59277 16.055 7.59277 12.8333C7.59277 9.61166 10.2044 6.99999 13.4261 6.99999C16.6478 6.99999 19.2594 9.61166 19.2594 12.8333Z" fill="#8E919C"/>
</svg>
