<svg width="18" height="18" viewBox="0 0 18 18" fill="none" xmlns="http://www.w3.org/2000/svg">
<path opacity="0.3" d="M13.1667 7.21965C12.7065 7.21965 12.3334 6.84672 12.3334 6.38668C12.3334 5.92665 12.7065 5.55371 13.1667 5.55371H14.0001C15.841 5.55371 17.3334 7.04545 17.3334 8.8856V13.8827C17.3334 15.7229 15.841 17.2146 14.0001 17.2146H4.00008C2.15913 17.2146 0.666748 15.7229 0.666748 13.8827L0.666748 8.87982C0.666748 7.03966 2.15913 5.54793 4.00008 5.54793L4.83342 5.54793C5.29366 5.54793 5.66675 5.92086 5.66675 6.3809C5.66675 6.84094 5.29366 7.21387 4.83342 7.21387H4.00008C3.07961 7.21387 2.33341 7.95974 2.33341 8.87982L2.33341 13.8827C2.33341 14.8028 3.07961 15.5487 4.00008 15.5487L14.0001 15.5487C14.9206 15.5487 15.6667 14.8028 15.6667 13.8827L15.6667 8.8856C15.6667 7.96552 14.9206 7.21965 14.0001 7.21965H13.1667Z" fill="black"/>
<rect opacity="0.3" width="1.66667" height="10" rx="0.833333" transform="matrix(-1 0 0 1 9.83337 2.22038)" fill="black"/>
<path d="M10.9108 4.4763C11.2363 4.80174 11.7639 4.80174 12.0893 4.4763C12.4148 4.15087 12.4148 3.62323 12.0893 3.29779L9.58934 0.797793C9.2639 0.472355 8.73626 0.472355 8.41083 0.797793L5.91083 3.29779C5.58539 3.62323 5.58539 4.15087 5.91083 4.4763C6.23626 4.80174 6.7639 4.80174 7.08934 4.4763L9.00008 2.56556L10.9108 4.4763Z" fill="black"/>
</svg>
