<svg width="12" height="12" viewBox="0 0 12 12" fill="none" xmlns="http://www.w3.org/2000/svg">
<path fill-rule="evenodd" clip-rule="evenodd" d="M4.07335 3.5283L5.32667 2.27497V8.055C5.32667 8.42167 5.62667 8.72167 5.99333 8.72167C6.36 8.72167 6.66 8.42167 6.66 8.055V2.27497L7.92 3.5283C8.18 3.7883 8.6 3.7883 8.86 3.5283C8.98487 3.40375 9.055 3.23465 9.055 3.0583C9.055 2.88196 8.98487 2.71286 8.86 2.5883L6.46667 0.19497C6.20667 -0.0650305 5.78667 -0.0650305 5.52667 0.19497L3.13335 2.5883C2.87335 2.8483 2.87335 3.2683 3.13335 3.5283C3.39335 3.7883 3.81335 3.7883 4.07335 3.5283ZM10.6667 10V6.66667C10.6667 6.3 10.9667 6 11.3333 6C11.7 6 12 6.3 12 6.66667V10.6667C12 11.4 11.4 12 10.6667 12H1.33333C0.6 12 0 11.4 0 10.6667V6.66667C0 6.3 0.3 6 0.666667 6C1.03333 6 1.33333 6.3 1.33333 6.66667V10C1.33333 10.3667 1.63333 10.6667 2 10.6667H10C10.3667 10.6667 10.6667 10.3667 10.6667 10Z" fill="#333333"/>
</svg>
